<svg width="267" height="60" viewBox="0 0 267 60" fill="none" xmlns="http://www.w3.org/2000/svg">
<path d="M4.78144 47.3418C4.41235 47.3418 4.11037 47.2236 3.8755 46.9873C3.64064 46.7511 3.52319 46.4473 3.52319 46.076V13.1646C3.52319 12.7932 3.64064 12.4894 3.8755 12.2532C4.11037 12.0169 4.41235 11.8987 4.78144 11.8987H20.1321C23.0176 11.8987 25.3832 12.3038 27.2286 13.1139C29.0739 13.9241 30.4328 15.0886 31.3053 16.6076C32.2112 18.0928 32.6642 19.865 32.6642 21.9241C32.6642 23.1392 32.4294 24.2194 31.9596 25.1646C31.5235 26.076 30.9698 26.8354 30.2987 27.443C29.6613 28.0506 29.0573 28.4894 28.4868 28.7595C29.7619 29.3671 30.8858 30.3628 31.8589 31.7468C32.8655 33.1309 33.3688 34.7511 33.3688 36.6076C33.3688 38.8355 32.8655 40.7595 31.8589 42.3798C30.8858 43.9663 29.4431 45.1982 27.5305 46.076C25.6515 46.9198 23.3364 47.3418 20.585 47.3418H4.78144ZM12.5322 40.7595H19.5784C21.0212 40.7595 22.1117 40.3375 22.8499 39.4937C23.588 38.6499 23.9571 37.6879 23.9571 36.6076C23.9571 35.4261 23.5713 34.4304 22.7995 33.6203C22.0614 32.8101 20.9877 32.4051 19.5784 32.4051H12.5322V40.7595ZM12.5322 25.9747H19.1255C20.5011 25.9747 21.5245 25.6203 22.1956 24.9114C22.9002 24.2025 23.2525 23.2911 23.2525 22.1772C23.2525 21.097 22.9002 20.2194 22.1956 19.5443C21.5245 18.8354 20.5011 18.481 19.1255 18.481H12.5322V25.9747ZM41.7286 47.3418C41.3597 47.3418 41.0577 47.2236 40.8227 46.9873C40.5879 46.7511 40.4704 46.4473 40.4704 46.076V13.1646C40.4704 12.7932 40.5879 12.4894 40.8227 12.2532C41.0577 12.0169 41.3597 11.8987 41.7286 11.8987H48.4728C48.842 11.8987 49.144 12.0169 49.3787 12.2532C49.6138 12.4894 49.7311 12.7932 49.7311 13.1646V46.076C49.7311 46.4473 49.6138 46.7511 49.3787 46.9873C49.144 47.2236 48.842 47.3418 48.4728 47.3418H41.7286ZM67.3073 47.3418C66.9381 47.3418 66.6361 47.2236 66.4013 46.9873C66.1665 46.7511 66.049 46.4473 66.049 46.076V19.8481H57.0903C56.7211 19.8481 56.4191 19.73 56.1844 19.4937C55.9496 19.2236 55.832 18.9198 55.832 18.5823V13.1646C55.832 12.7932 55.9496 12.4894 56.1844 12.2532C56.4191 12.0169 56.7211 11.8987 57.0903 11.8987H84.1678C84.5369 11.8987 84.8389 12.0169 85.0737 12.2532C85.3085 12.4894 85.426 12.7932 85.426 13.1646V18.5823C85.426 18.9198 85.3085 19.2236 85.0737 19.4937C84.8389 19.73 84.5369 19.8481 84.1678 19.8481H75.2091V46.076C75.2091 46.4473 75.0915 46.7511 74.8567 46.9873C74.6219 47.2236 74.32 47.3418 73.9508 47.3418H67.3073ZM128.263 47.3418C127.894 47.3418 127.592 47.2236 127.357 46.9873C127.122 46.7511 127.005 46.4473 127.005 46.076V13.1646C127.005 12.7932 127.122 12.4894 127.357 12.2532C127.592 12.0169 127.894 11.8987 128.263 11.8987H143.613C146.499 11.8987 148.864 12.3038 150.71 13.1139C152.555 13.9241 153.914 15.0886 154.787 16.6076C155.693 18.0928 156.146 19.865 156.146 21.9241C156.146 23.1392 155.91 24.2194 155.441 25.1646C155.005 26.076 154.451 26.8354 153.78 27.443C153.142 28.0506 152.538 28.4894 151.968 28.7595C153.243 29.3671 154.367 30.3628 155.34 31.7468C156.347 33.1309 156.85 34.7511 156.85 36.6076C156.85 38.8355 156.347 40.7595 155.34 42.3798C154.367 43.9663 152.924 45.1982 151.012 46.076C149.133 46.9198 146.818 47.3418 144.066 47.3418H128.263ZM136.014 40.7595H143.06C144.502 40.7595 145.593 40.3375 146.331 39.4937C147.069 38.6499 147.438 37.6879 147.438 36.6076C147.438 35.4261 147.052 34.4304 146.281 33.6203C145.543 32.8101 144.469 32.4051 143.06 32.4051H136.014V40.7595ZM136.014 25.9747H142.607C143.982 25.9747 145.006 25.6203 145.677 24.9114C146.382 24.2025 146.734 23.2911 146.734 22.1772C146.734 21.097 146.382 20.2194 145.677 19.5443C145.006 18.8354 143.982 18.481 142.607 18.481H136.014V25.9747ZM161.447 47.3418C161.179 47.3418 160.927 47.2405 160.692 47.038C160.491 46.8018 160.39 46.5486 160.39 46.2785C160.39 46.1096 160.407 45.9577 160.44 45.8228L172.268 13.3165C172.369 12.9451 172.57 12.6245 172.872 12.3544C173.207 12.0506 173.66 11.8987 174.231 11.8987H181.68C182.25 11.8987 182.686 12.0506 182.988 12.3544C183.324 12.6245 183.542 12.9451 183.643 13.3165L195.42 45.8228C195.487 45.9577 195.52 46.1096 195.52 46.2785C195.52 46.5486 195.403 46.8018 195.168 47.038C194.967 47.2405 194.715 47.3418 194.413 47.3418H188.223C187.719 47.3418 187.333 47.2236 187.065 46.9873C186.83 46.7172 186.679 46.481 186.612 46.2785L184.649 41.1139H171.211L169.299 46.2785C169.231 46.481 169.08 46.7172 168.846 46.9873C168.61 47.2236 168.208 47.3418 167.638 47.3418H161.447ZM173.275 33.8228H182.636L177.905 20.4557L173.275 33.8228ZM214.705 47.8481C211.517 47.8481 208.783 47.3248 206.501 46.2785C204.253 45.2322 202.491 43.6962 201.216 41.6709C199.975 39.6456 199.287 37.1309 199.153 34.1266C199.119 32.7425 199.102 31.2575 199.102 29.6709C199.102 28.0843 199.119 26.5653 199.153 25.1139C199.287 22.1772 199.991 19.6962 201.267 17.6709C202.542 15.6118 204.32 14.0591 206.602 13.0127C208.883 11.9325 211.584 11.3924 214.705 11.3924C216.919 11.3924 218.966 11.6793 220.845 12.2532C222.724 12.7932 224.368 13.6034 225.777 14.6835C227.186 15.73 228.277 17.0127 229.049 18.5317C229.854 20.0169 230.273 21.7046 230.307 23.5949C230.34 23.8987 230.24 24.1519 230.005 24.3544C229.804 24.557 229.552 24.6582 229.25 24.6582H222.455C222.019 24.6582 221.684 24.5739 221.449 24.4051C221.214 24.2025 221.013 23.8481 220.845 23.3418C220.375 21.5527 219.603 20.3376 218.53 19.6962C217.49 19.0211 216.198 18.6836 214.654 18.6836C212.809 18.6836 211.349 19.2068 210.276 20.2532C209.202 21.2658 208.615 22.9705 208.514 25.3671C208.413 28.1349 208.413 30.9704 208.514 33.8734C208.615 36.2701 209.202 37.9917 210.276 39.038C211.349 40.0506 212.809 40.557 214.654 40.557C216.198 40.557 217.506 40.2195 218.58 39.5443C219.654 38.8691 220.409 37.6539 220.845 35.8987C220.979 35.3924 221.164 35.0549 221.398 34.8861C221.667 34.6836 222.019 34.5823 222.455 34.5823H229.25C229.552 34.5823 229.804 34.6836 230.005 34.8861C230.24 35.0886 230.34 35.3418 230.307 35.6456C230.273 37.536 229.854 39.2405 229.049 40.7595C228.277 42.2448 227.186 43.5273 225.777 44.6076C224.368 45.6539 222.724 46.4641 220.845 47.038C218.966 47.578 216.919 47.8481 214.705 47.8481ZM238.367 47.3418C237.998 47.3418 237.696 47.2236 237.461 46.9873C237.226 46.7511 237.109 46.4473 237.109 46.076V13.1646C237.109 12.7932 237.226 12.4894 237.461 12.2532C237.696 12.0169 237.998 11.8987 238.367 11.8987H244.709C245.078 11.8987 245.38 12.0169 245.615 12.2532C245.849 12.4894 245.967 12.7932 245.967 13.1646V24.4051L255.278 12.8608C255.412 12.6582 255.631 12.4557 255.933 12.2532C256.267 12.0169 256.705 11.8987 257.241 11.8987H264.489C264.791 11.8987 265.042 12.0169 265.244 12.2532C265.445 12.4557 265.546 12.692 265.546 12.962C265.546 13.1983 265.478 13.4008 265.344 13.5696L253.315 28.8608L266.301 45.6709C266.434 45.8058 266.502 46.0084 266.502 46.2785C266.502 46.5486 266.384 46.8018 266.15 47.038C265.948 47.2405 265.714 47.3418 265.445 47.3418H257.946C257.342 47.3418 256.871 47.2068 256.537 46.9367C256.235 46.6666 256.033 46.4641 255.933 46.3291L245.967 33.8228V46.076C245.967 46.4473 245.849 46.7511 245.615 46.9873C245.38 47.2236 245.078 47.3418 244.709 47.3418H238.367Z" fill="#495057"/>
<mask id="mask0_36_35" style="mask-type:luminance" maskUnits="userSpaceOnUse" x="82" y="4" width="48" height="49">
<path d="M129.88 16.7461L94.4055 4.52792L82.2604 40.2159L117.735 52.4341L129.88 16.7461Z" fill="white"/>
</mask>
<g mask="url(#mask0_36_35)">
<path d="M110.306 13.2304C110.379 12.8349 110.199 12.4303 109.844 12.2457C108.386 11.5022 106.733 11.2441 105.112 11.5035L99.0474 12.4908C97.4336 12.7526 95.9405 13.5233 94.7847 14.6904L90.4485 19.0842C89.2927 20.2513 88.5302 21.7642 88.2786 23.3907L87.319 29.5081C87.0651 31.1418 87.3273 32.8051 88.0727 34.2767L90.8653 39.7863C91.6109 41.2577 92.7939 42.4441 94.2517 43.1876L99.7248 45.9838C101.183 46.7271 102.836 46.9853 104.457 46.7258L110.521 45.7385C112.135 45.4767 113.628 44.7061 114.787 43.5319L119.12 39.1453C120.276 37.978 121.039 36.4653 121.29 34.8387C121.354 34.4479 121.144 34.064 120.795 33.8818C117.422 32.0813 115.483 28.3841 115.866 24.5989C115.921 24.0262 115.629 23.4739 115.124 23.2066C111.547 21.2972 109.588 17.2505 110.299 13.228L110.306 13.2304ZM104.115 20.1625C104.703 20.365 105.187 20.7943 105.461 21.3558C105.734 21.9173 105.775 22.5651 105.574 23.1567C105.372 23.7482 104.946 24.2351 104.387 24.5102C103.829 24.7853 103.185 24.826 102.597 24.6235C102.009 24.421 101.525 23.9917 101.252 23.4302C100.979 22.8687 100.938 22.2209 101.139 21.6294C101.341 21.0378 101.767 20.5509 102.325 20.2758C102.884 20.0007 103.528 19.96 104.115 20.1625ZM95.1267 32.0182C95.328 31.4266 95.7548 30.9397 96.313 30.6646C96.8711 30.3896 97.5149 30.3489 98.103 30.5514C98.6911 30.7539 99.175 31.183 99.4485 31.7446C99.7218 32.3061 99.7623 32.9539 99.561 33.5456C99.3597 34.137 98.9332 34.6241 98.375 34.899C97.8168 35.1742 97.1729 35.2149 96.5848 35.0124C95.9969 34.8099 95.5127 34.3805 95.2394 33.819C94.9659 33.2575 94.9254 32.6099 95.1267 32.0182ZM112.165 32.9028C112.753 33.1053 113.237 33.5344 113.51 34.096C113.784 34.6575 113.824 35.3053 113.623 35.8967C113.422 36.4884 112.995 36.9752 112.437 37.2504C111.879 37.5256 111.235 37.5663 110.647 37.3638C110.059 37.1613 109.575 36.7319 109.301 36.1704C109.028 35.6089 108.987 34.961 109.189 34.3696C109.39 33.778 109.817 33.2911 110.375 33.0159C110.933 32.741 111.577 32.7003 112.165 32.9028Z" fill="#ED666A"/>
</g>
</svg>
